<?xml version="1.0" encoding="UTF-8"?>
<svg xmlns="http://www.w3.org/2000/svg" width="565" height="430" viewBox="0 0 565 430" role="img" aria-label="Logo">
  <defs>
    <linearGradient id="logoGradient" x1="0" y1="0" x2="565" y2="0" gradientUnits="userSpaceOnUse">
      <stop offset="0" stop-color="#10A7F5"/>
      <stop offset="0.52" stop-color="#3268F2"/>
      <stop offset="1" stop-color="#9B42F4"/>
    </linearGradient>
  </defs>
  <path d="
    M 213 378 L 213 383 L 215 385 L 215 386 L 217 387 L 370 387 L 375 383 L 375 379 L 374 377 L 370 374 L 338 374 L 335 371 L 334 364 L 333 363 L 332 358 L 329 353 L 329 351 L 327 347 L 327 344 L 326 342 L 324 342 L 323 341 L 276 341 L 275 342 L 269 342 L 268 341 L 263 341 L 261 342 L 260 344 L 260 347 L 259 348 L 259 350 L 258 351 L 258 353 L 256 357 L 256 360 L 254 363 L 254 365 L 251 370 L 251 373 L 248 375 L 247 374 L 219 374 L 218 375 L 216 375 Z
    M 293 316 L 296 316 L 298 317 L 301 321 L 301 326 L 297 330 L 292 330 L 290 329 L 287 325 L 287 321 L 291 317 Z
    M 343 251 L 345 253 L 345 256 L 344 258 L 342 260 L 340 265 L 336 270 L 336 272 L 332 276 L 332 277 L 324 285 L 324 286 L 321 289 L 320 289 L 312 295 L 310 295 L 305 298 L 301 298 L 300 299 L 297 299 L 295 297 L 295 287 L 294 286 L 295 284 L 295 278 L 294 277 L 294 275 L 295 274 L 295 262 L 294 260 L 297 257 L 313 257 L 314 256 L 317 256 L 318 255 L 329 255 L 333 253 L 336 253 L 337 252 L 340 252 L 341 251 Z
    M 248 251 L 251 251 L 252 252 L 254 252 L 257 254 L 260 254 L 261 255 L 268 255 L 269 256 L 275 256 L 276 257 L 283 257 L 284 258 L 288 258 L 289 257 L 292 259 L 292 297 L 290 299 L 288 299 L 285 297 L 282 297 L 281 296 L 278 296 L 276 295 L 272 291 L 269 290 L 255 276 L 255 275 L 249 267 L 247 263 L 247 261 L 244 258 L 244 256 Z
    M 382 241 L 382 249 L 384 252 L 384 260 L 372 271 L 371 271 L 369 273 L 365 275 L 362 278 L 356 281 L 353 284 L 350 284 L 346 286 L 344 288 L 342 289 L 339 289 L 330 294 L 326 294 L 320 297 L 318 297 L 317 296 L 317 294 L 319 292 L 325 289 L 332 282 L 332 281 L 335 278 L 336 275 L 338 273 L 340 269 L 343 266 L 344 264 L 344 262 L 347 256 L 358 246 L 360 245 L 363 245 L 367 243 L 370 240 L 374 238 L 379 238 Z
    M 205 234 L 207 233 L 208 234 L 210 234 L 212 235 L 215 238 L 227 244 L 228 246 L 227 251 L 226 253 L 222 257 L 205 257 L 204 256 L 201 256 L 199 254 L 199 250 L 200 249 L 200 246 L 201 245 L 201 240 L 203 236 Z
    M 292 222 L 292 253 L 290 256 L 288 256 L 287 255 L 284 255 L 283 254 L 270 254 L 269 253 L 265 253 L 264 252 L 259 252 L 258 251 L 256 251 L 255 250 L 253 250 L 249 248 L 248 246 L 248 243 L 251 240 L 253 240 L 257 238 L 259 236 L 264 234 L 270 229 L 272 229 L 274 228 L 276 226 L 283 223 L 287 220 L 290 220 Z
    M 408 219 L 409 221 L 405 229 L 403 231 L 403 233 L 401 237 L 397 242 L 394 248 L 392 249 L 392 250 L 388 254 L 387 254 L 386 253 L 386 243 L 385 242 L 385 239 L 386 238 L 386 236 L 389 230 L 396 224 L 398 223 L 400 223 L 402 221 L 406 219 Z
    M 176 207 L 178 207 L 181 211 L 181 212 L 185 216 L 185 217 L 187 218 L 195 225 L 196 225 L 199 228 L 200 230 L 200 235 L 199 236 L 199 240 L 198 241 L 198 246 L 195 250 L 187 239 L 182 228 L 180 226 L 180 224 L 178 220 L 178 217 L 175 212 L 175 208 Z
    M 222 188 L 224 188 L 226 191 L 225 192 L 225 199 L 226 200 L 226 206 L 227 207 L 227 213 L 228 214 L 228 218 L 230 222 L 230 226 L 231 227 L 231 232 L 233 235 L 233 237 L 229 241 L 226 241 L 222 238 L 217 236 L 215 234 L 213 234 L 211 232 L 210 232 L 207 226 L 207 223 L 210 217 L 210 215 L 211 214 L 212 209 L 216 203 L 216 201 L 219 195 L 220 190 Z
    M 227 191 L 231 187 L 236 187 L 238 189 L 243 191 L 245 193 L 248 194 L 250 196 L 252 197 L 254 197 L 258 200 L 264 203 L 266 203 L 271 207 L 273 208 L 275 208 L 282 212 L 284 212 L 287 215 L 282 220 L 279 221 L 277 223 L 274 224 L 272 226 L 267 228 L 265 230 L 258 233 L 255 236 L 252 237 L 248 240 L 246 240 L 241 237 L 238 237 L 236 235 L 236 232 L 235 231 L 235 229 L 233 227 L 233 223 L 232 222 L 232 220 L 231 219 L 231 216 L 230 215 L 230 210 L 229 209 L 229 200 L 228 199 L 228 195 L 227 194 Z
    M 367 189 L 367 191 L 370 196 L 371 201 L 373 203 L 373 206 L 374 207 L 374 209 L 375 210 L 375 213 L 376 214 L 376 217 L 377 218 L 377 220 L 375 222 L 373 227 L 369 231 L 367 231 L 359 236 L 357 236 L 356 237 L 351 238 L 345 242 L 338 243 L 330 247 L 326 247 L 325 248 L 321 248 L 320 249 L 318 249 L 315 253 L 313 253 L 312 254 L 305 254 L 304 255 L 300 255 L 299 256 L 297 256 L 295 254 L 295 221 L 300 216 L 300 214 L 303 211 L 305 210 L 307 210 L 310 208 L 312 208 L 316 205 L 317 205 L 319 203 L 321 203 L 325 201 L 327 199 L 335 195 L 338 192 L 345 189 L 347 187 L 350 186 L 354 183 L 362 188 L 362 190 L 360 193 L 360 204 L 359 205 L 359 209 L 358 210 L 358 216 L 357 217 L 357 222 L 356 223 L 356 225 L 355 226 L 355 229 L 354 230 L 354 231 L 356 232 L 357 231 L 357 229 L 359 225 L 359 222 L 360 221 L 360 217 L 361 216 L 361 209 L 363 206 L 363 196 L 364 195 L 364 191 L 363 189 L 364 188 L 366 188 Z
    M 174 188 L 177 188 L 178 187 L 183 187 L 184 186 L 188 186 L 192 184 L 196 184 L 197 183 L 200 183 L 201 182 L 211 182 L 213 181 L 217 184 L 218 186 L 218 190 L 216 193 L 216 195 L 213 201 L 211 203 L 211 206 L 208 211 L 207 218 L 203 225 L 201 226 L 199 225 L 193 219 L 192 219 L 185 212 L 185 211 L 183 209 L 182 209 L 179 206 L 179 205 L 176 202 L 175 200 L 175 198 L 174 197 L 174 195 L 173 194 L 173 189 Z
    M 369 185 L 372 181 L 374 181 L 375 180 L 376 181 L 382 181 L 383 182 L 389 182 L 393 184 L 396 184 L 397 185 L 400 185 L 401 186 L 404 186 L 405 187 L 411 187 L 413 190 L 413 196 L 415 197 L 416 199 L 405 210 L 402 211 L 397 216 L 392 218 L 389 221 L 385 221 L 383 220 L 379 216 L 379 213 L 377 210 L 377 208 L 376 207 L 376 204 L 375 203 L 374 198 L 372 196 L 371 191 L 369 188 Z
    M 237 177 L 239 175 L 247 175 L 248 174 L 251 174 L 252 173 L 255 173 L 256 172 L 262 172 L 263 171 L 269 171 L 270 170 L 276 170 L 277 169 L 287 169 L 289 170 L 292 173 L 292 206 L 291 207 L 291 209 L 288 211 L 287 210 L 282 209 L 279 207 L 277 207 L 275 205 L 273 205 L 271 203 L 265 200 L 263 200 L 261 198 L 247 191 L 245 189 L 239 186 L 236 183 L 237 182 Z
    M 295 208 L 295 172 L 298 169 L 300 168 L 303 168 L 304 169 L 314 169 L 315 170 L 322 170 L 323 171 L 331 171 L 332 172 L 341 172 L 342 173 L 344 173 L 348 175 L 351 175 L 353 178 L 353 180 L 351 182 L 346 184 L 341 188 L 336 190 L 333 193 L 326 196 L 321 200 L 304 208 L 302 210 L 297 210 Z
    M 391 147 L 393 147 L 395 148 L 404 158 L 404 160 L 407 163 L 411 171 L 411 173 L 413 177 L 413 185 L 412 186 L 410 185 L 408 185 L 407 184 L 403 184 L 402 183 L 395 182 L 391 180 L 386 180 L 385 179 L 377 179 L 373 175 L 372 173 L 372 171 L 371 170 L 372 168 L 374 167 L 378 163 L 378 162 L 383 157 L 385 153 Z
    M 399 133 L 400 133 L 402 135 L 402 137 L 407 145 L 408 152 L 410 156 L 410 160 L 409 161 L 406 158 L 404 157 L 404 155 L 403 153 L 400 150 L 400 149 L 397 146 L 396 144 L 396 137 Z
    M 186 132 L 189 135 L 189 137 L 191 141 L 191 144 L 190 145 L 190 147 L 181 159 L 181 161 L 179 162 L 179 164 L 177 167 L 177 170 L 179 169 L 180 166 L 183 163 L 186 157 L 189 154 L 190 151 L 195 148 L 197 148 L 206 159 L 208 163 L 212 167 L 214 168 L 214 169 L 216 171 L 216 175 L 213 179 L 205 179 L 204 180 L 198 180 L 197 181 L 195 181 L 194 182 L 191 182 L 190 183 L 186 183 L 185 184 L 179 184 L 178 185 L 173 186 L 172 185 L 172 183 L 173 182 L 173 180 L 174 179 L 174 176 L 175 175 L 175 172 L 173 170 L 174 161 L 175 160 L 175 157 L 176 156 L 176 154 L 177 153 L 177 151 L 179 147 L 179 144 L 180 143 L 180 141 L 183 138 L 184 136 L 184 134 Z
    M 295 129 L 297 127 L 301 127 L 303 128 L 306 131 L 307 131 L 309 133 L 313 135 L 317 139 L 320 140 L 324 144 L 325 144 L 333 151 L 334 151 L 337 155 L 340 156 L 344 161 L 345 161 L 354 169 L 354 171 L 352 173 L 348 173 L 347 172 L 345 172 L 341 170 L 336 170 L 335 169 L 328 169 L 327 168 L 318 168 L 317 167 L 307 167 L 306 166 L 304 167 L 300 167 L 298 166 L 295 162 Z
    M 353 119 L 357 119 L 363 122 L 365 124 L 367 124 L 370 127 L 376 130 L 387 140 L 387 146 L 385 150 L 379 156 L 379 157 L 376 159 L 375 162 L 369 167 L 366 167 L 363 164 L 363 159 L 361 156 L 361 150 L 359 146 L 359 142 L 357 138 L 356 131 L 354 128 L 354 126 L 353 124 L 351 122 L 351 121 Z
    M 236 117 L 237 118 L 237 121 L 235 124 L 235 126 L 231 134 L 231 137 L 230 138 L 230 141 L 229 142 L 229 147 L 227 150 L 227 154 L 226 155 L 226 160 L 225 161 L 225 167 L 223 169 L 218 169 L 216 167 L 216 166 L 213 163 L 211 162 L 211 161 L 209 159 L 207 155 L 200 148 L 199 146 L 200 141 L 208 134 L 209 134 L 213 130 L 216 129 L 221 124 L 226 122 L 229 119 L 233 117 Z
    M 302 122 L 304 120 L 314 120 L 315 119 L 328 119 L 329 118 L 335 118 L 338 116 L 341 117 L 343 119 L 345 119 L 347 120 L 350 123 L 350 125 L 352 128 L 352 130 L 353 131 L 353 134 L 354 135 L 354 138 L 355 139 L 355 141 L 356 142 L 356 144 L 358 148 L 358 154 L 359 155 L 359 162 L 360 163 L 360 165 L 358 167 L 355 167 L 351 163 L 350 163 L 347 160 L 347 159 L 345 158 L 344 156 L 335 148 L 331 146 L 322 138 L 319 137 L 314 132 L 310 130 L 307 127 L 305 127 L 302 124 Z
    M 242 118 L 244 118 L 246 117 L 249 114 L 250 114 L 254 116 L 257 116 L 258 117 L 263 117 L 264 118 L 267 118 L 268 119 L 282 119 L 285 122 L 286 125 L 287 125 L 292 130 L 292 160 L 291 161 L 291 163 L 287 167 L 275 167 L 274 168 L 265 168 L 264 169 L 260 169 L 259 170 L 254 170 L 253 171 L 250 171 L 249 172 L 246 172 L 245 173 L 241 173 L 240 174 L 237 174 L 235 173 L 231 169 L 230 169 L 228 167 L 228 162 L 229 161 L 229 154 L 230 153 L 230 148 L 232 145 L 233 138 L 235 136 L 235 134 L 236 133 L 236 131 L 238 127 L 238 124 L 239 123 L 239 121 Z
    M 368 97 L 373 97 L 386 110 L 386 111 L 393 119 L 393 120 L 397 125 L 397 129 L 395 133 L 391 137 L 388 137 L 386 136 L 382 132 L 381 132 L 377 128 L 373 126 L 369 122 L 367 121 L 365 121 L 359 117 L 357 117 L 355 115 L 355 112 L 356 110 L 366 101 Z
    M 184 95 L 183 96 L 181 96 L 177 98 L 174 101 L 173 103 L 173 107 L 172 108 L 173 109 L 173 114 L 174 116 L 179 121 L 181 121 L 182 122 L 190 122 L 197 118 L 198 116 L 198 114 L 199 113 L 199 105 L 194 97 L 192 96 L 189 96 L 188 95 Z
    M 316 70 L 317 69 L 322 69 L 326 71 L 330 71 L 348 80 L 350 80 L 352 82 L 355 83 L 361 88 L 362 88 L 368 94 L 368 97 L 367 98 L 365 98 L 356 106 L 354 107 L 352 106 L 347 106 L 345 105 L 343 103 L 343 101 L 342 99 L 340 97 L 339 94 L 334 88 L 334 87 L 332 86 L 331 84 L 321 74 L 319 74 L 316 71 Z
    M 273 69 L 273 70 L 269 74 L 268 74 L 261 80 L 261 81 L 257 85 L 257 86 L 248 96 L 246 102 L 242 105 L 239 105 L 238 106 L 234 106 L 229 102 L 224 100 L 222 97 L 220 96 L 218 96 L 217 95 L 217 93 L 221 89 L 226 87 L 228 85 L 229 85 L 231 83 L 234 82 L 238 79 L 240 79 L 254 72 L 258 72 L 259 71 L 261 71 L 267 68 L 272 68 Z
    M 291 67 L 292 68 L 292 110 L 287 115 L 286 115 L 286 116 L 284 118 L 281 118 L 280 117 L 277 117 L 276 116 L 266 116 L 265 115 L 262 115 L 261 114 L 257 114 L 256 113 L 251 113 L 248 110 L 247 108 L 247 104 L 249 102 L 250 99 L 255 93 L 257 89 L 269 77 L 270 77 L 277 71 L 283 68 L 285 68 L 286 67 Z
    M 294 68 L 296 66 L 303 67 L 306 69 L 308 69 L 310 70 L 317 76 L 320 77 L 327 84 L 327 85 L 329 86 L 332 89 L 332 90 L 336 95 L 338 100 L 342 105 L 342 110 L 338 114 L 336 114 L 335 115 L 332 115 L 331 116 L 318 116 L 317 117 L 311 117 L 310 118 L 303 118 L 300 115 L 300 114 L 299 114 L 295 110 L 295 70 Z
    M 286 59 L 261 63 L 243 69 L 204 91 L 200 95 L 204 103 L 216 95 L 221 101 L 233 108 L 235 113 L 217 123 L 199 138 L 195 138 L 188 128 L 179 129 L 167 161 L 165 197 L 169 215 L 179 239 L 187 250 L 186 253 L 170 248 L 157 241 L 142 226 L 135 211 L 135 192 L 141 173 L 151 156 L 169 135 L 166 135 L 155 144 L 131 172 L 121 195 L 120 212 L 125 227 L 130 234 L 145 247 L 162 255 L 199 261 L 240 257 L 259 285 L 272 295 L 270 297 L 239 287 L 217 273 L 210 266 L 205 265 L 201 268 L 221 284 L 247 297 L 267 303 L 296 305 L 323 302 L 345 295 L 365 285 L 389 265 L 407 241 L 419 211 L 431 202 L 450 180 L 457 158 L 457 140 L 454 128 L 449 119 L 433 103 L 412 92 L 391 86 L 383 86 L 383 88 L 404 93 L 417 101 L 432 116 L 440 130 L 442 137 L 440 166 L 428 188 L 417 198 L 421 189 L 417 153 L 401 118 L 388 101 L 365 81 L 342 69 L 320 62 Z
    M 105 57 L 117 50 L 352 49 L 471 50 L 479 53 L 487 64 L 488 255 L 487 294 L 484 301 L 476 308 L 469 310 L 119 310 L 113 308 L 104 300 L 101 291 L 101 65 Z
    M 92 50 L 87 62 L 87 312 L 91 322 L 100 331 L 110 335 L 479 335 L 492 329 L 498 322 L 502 313 L 502 61 L 496 49 L 490 43 L 482 38 L 469 36 L 109 37 L 101 41 Z
  " fill="url(#logoGradient)" fill-rule="evenodd"/>
</svg>
